<?xml version="1.0" encoding="UTF-8"?>
<svg id="Calque" xmlns="http://www.w3.org/2000/svg" viewBox="0 0 1423.17 370">
  <defs>
    <style>
      .cls-1 {
        fill: #f9f5f3;
        stroke-width: 0px;
      }
    </style>
  </defs>
  <path class="cls-1" d="M1238.68,278.02l-15.03-44.4c69.28-16.9,99.39-52.28,99.39-114.15C1323.04,40.23,1272.8,0,1181.92,0h-133.14v181.82c32.03,0,58.12-26.03,58.12-58.17V58.75h71.32c53.94,0,79.77,17.95,79.77,60.73,0,44.97-27.96,62.34-82.38,62.34h-68.76c-32.08,0-58.07,26.03-58.07,58.17v130.01h58.12v-130.01h50.81l18.52,61.82c12.16,40.49,49.46,68.19,91.72,68.19h54.62v-58.17h-36.78c-21.34,0-40.33-13.56-47.11-33.81Z"/>
  <path class="cls-1" d="M271,223.5c0,102-37,146.5-134.5,146.5-82,0-115.5-70-136.5-135.5h68c11,32,25,82,77,82,37.5,0,56-25.5,56-98V78.5c0-16.5-8-24.5-24-24.5h-112V0h137C248.5,0,271,23,271,69v154.5Z"/>
  <path class="cls-1" d="M1423.17,352.84c0,11.56-5.6,17.16-16.81,17.16h-25.21c-11.56,0-17.16-5.6-17.16-17.16v-21.36c0-11.56,5.6-17.16,17.16-17.16h25.21c11.2,0,16.81,5.6,16.81,17.16v21.36Z"/>
  <path class="cls-1" d="M980.63,69.53C980.43,31.1,949.48,0,911.32,0v69.92h0v156.09L801.09,0h-120.95v370h69.41V24.02c0-.87.7-1.57,1.57-1.57.6,0,1.15.34,1.41.89l107.99,223.9c1.74,3.6,5.38,5.89,9.38,5.89h41.43v116.87h69.41V69.53h-.1Z"/>
  <path class="cls-1" d="M540.63,69.52v167.16c0,55.93-32.95,74.4-65.41,74.4s-65.91-18.97-65.91-77.89V69.92h0C409.22,31.38,377.96.16,339.4.16v253c0,66.41,53.43,116.84,136.32,116.84s134.82-50.43,134.82-116.84V0C572.06,0,540.84,31.09,540.63,69.52Z"/>
</svg>